<svg width="15" height="14" viewBox="0 0 15 14" fill="none" xmlns="http://www.w3.org/2000/svg">
<path d="M5.10004 10.3333L7.50004 7.93334L9.90004 10.3333L10.8334 9.4L8.43337 7L10.8334 4.6L9.90004 3.66667L7.50004 6.06667L5.10004 3.66667L4.16671 4.6L6.56671 7L4.16671 9.4L5.10004 10.3333ZM7.50004 13.6667C6.57782 13.6667 5.71115 13.4916 4.90004 13.1413C4.08893 12.7916 3.38337 12.3167 2.78337 11.7167C2.18337 11.1167 1.70849 10.4111 1.35871 9.6C1.00849 8.78889 0.833374 7.92222 0.833374 7C0.833374 6.07778 1.00849 5.21111 1.35871 4.4C1.70849 3.58889 2.18337 2.88334 2.78337 2.28334C3.38337 1.68334 4.08893 1.20822 4.90004 0.858002C5.71115 0.508225 6.57782 0.333336 7.50004 0.333336C8.42226 0.333336 9.28893 0.508225 10.1 0.858002C10.9112 1.20822 11.6167 1.68334 12.2167 2.28334C12.8167 2.88334 13.2916 3.58889 13.6414 4.4C13.9916 5.21111 14.1667 6.07778 14.1667 7C14.1667 7.92222 13.9916 8.78889 13.6414 9.6C13.2916 10.4111 12.8167 11.1167 12.2167 11.7167C11.6167 12.3167 10.9112 12.7916 10.1 13.1413C9.28893 13.4916 8.42226 13.6667 7.50004 13.6667Z" fill="#EB5757"/>
</svg>
